<?xml version="1.0" encoding="utf-8"?>
<!-- Generator: Adobe Illustrator 27.5.0, SVG Export Plug-In . SVG Version: 6.00 Build 0)  -->
<svg version="1.1" id="Layer_1" xmlns="http://www.w3.org/2000/svg" xmlns:xlink="http://www.w3.org/1999/xlink" x="0px" y="0px"
	 viewBox="0 0 32 32" style="enable-background:new 0 0 32 32;" xml:space="preserve">
<path d="M17.5,9.6l-1-3.5l5.2,1.5l-1-1.9l1-1.9l-5.2,1.5L17.9,0L16,1l-1.9-1l1.5,5.2l-5.2-1.5l1,1.9l-1,1.9L15.6,6l-1,3.5
	C9,10.3,4.8,15,4.8,20.7C4.8,27,9.8,32,16,32v0c0,0,0,0,0,0v0c0,0,0,0,0,0c0,0,0,0,0,0v0c0,0,0,0,0,0v0c6.2,0,11.2-5,11.2-11.3
	C27.2,15,23,10.3,17.5,9.6z M25.5,19.7c-0.6-0.4-1.3-0.7-2.2-0.9l0,0c-0.4-0.1-0.8-0.5-0.8-1l0,0c-0.4-2.2-1.1-4.2-2.1-5.6
	C23.1,13.7,25.1,16.4,25.5,19.7z M16,25.5c-5.8,0-10.6-2-10.6-4.3c0-0.5,0.4-1,1.1-1.5c0,0.3-0.1,0.7-0.1,1c0,0.1,0,0.1,0,0.2
	c0,0.5,0.3,1,0.7,1.3c0.3,0.2,0.6,0.4,1.1,0.6C8.5,23,8.8,22.9,9,22.8c0.2-0.2,0.4-0.4,0.3-0.7l0,0c0-0.4,0-0.8,0-1.2
	c0-0.8,0-1.5,0.1-2.2c-1.2,0.3-2.2,0.7-2.9,1.1c0.3-3.3,2.4-6.1,5.2-7.5c-1.1,1.6-1.9,3.8-2.2,6.4c0.5-0.1,1.1-0.2,1.7-0.3
	c0.1-0.5,0.2-0.9,0.3-1.4c0.3-1.2,0.7-2.2,1.3-3.1c0.5-0.8,1.1-1.5,1.7-1.9c0.5-0.4,1-0.6,1.6-0.6c0,0,0.1,0,0.1,0c0,0,0.1,0,0.1,0
	c0.5,0,1,0.2,1.6,0.6c0.6,0.4,1.2,1.1,1.7,1.9c0.5,0.9,1,2,1.3,3.1c0.1,0.3,0.1,0.5,0.2,0.8c0,0.1,0,0.3-0.1,0.4
	c-0.1,0.1-0.3,0.2-0.4,0.1l0,0C19,18,17.5,17.9,16,17.9c-1.8,0-3.4,0.1-4.9,0.4c-0.1,0.8-0.2,1.7-0.2,2.6c0,0.4,0,0.9,0,1.3
	c0.1,0.9,0.8,1.7,1.8,1.8c1,0.1,2.1,0.2,3.3,0.2c4,0,7.4-0.7,8.8-1.8c0.4-0.3,0.7-0.8,0.7-1.3c0-0.1,0-0.1,0-0.2c0-0.3,0-0.7-0.1-1
	c0.7,0.4,1,0.9,1,1.5C26.6,23.6,21.8,25.5,16,25.5z"/>
</svg>
