<?xml version="1.0" encoding="utf-8"?>
<!-- Generator: Adobe Illustrator 26.3.1, SVG Export Plug-In . SVG Version: 6.00 Build 0)  -->
<svg version="1.1" id="Layer_1" xmlns="http://www.w3.org/2000/svg" xmlns:xlink="http://www.w3.org/1999/xlink" x="0px" y="0px"
	 viewBox="0 0 466.8 115.7" style="enable-background:new 0 0 466.8 115.7;" xml:space="preserve" fill="blue">
<path d="M51.4,38l-3.1-10.8l15.9,4.6l-3.1-5.9l3.1-5.9l-15.9,4.6l4.6-15.9L47,11.8l-5.9-3.1l4.6,15.9L29.8,20l3.1,5.9l-3.1,5.9
	l15.9-4.6L42.5,38c-16.9,2.2-30,16.7-30,34.2c0,19,15.4,34.4,34.4,34.5l0,0l0,0l0,0l0,0l0,0l0,0l0,0l0,0c19,0,34.4-15.5,34.4-34.5
	C81.4,54.7,68.3,40.2,51.4,38z M76,69.1c-1.7-1.1-4-2-6.7-2.9l0,0c-1.3-0.4-2.3-1.5-2.6-2.9l0,0c-1.1-6.8-3.4-12.7-6.5-17.1
	C68.8,50.5,75,59,76,69.1z M46.9,86.9c-17.9,0-32.3-6-32.3-13.3c0-1.6,1.2-3.2,3.2-4.6c-0.1,1-0.2,2.1-0.2,3.2c0,0.2,0,0.4,0,0.5
	c0.1,1.6,0.8,3.1,2.1,4.1c0.9,0.7,2,1.3,3.3,1.8c0.8,0.3,1.7,0.2,2.4-0.3c0.7-0.5,1.1-1.4,1.1-2.2l0,0c-0.1-1.2-0.1-2.5-0.1-3.8
	c0-2.3,0.1-4.6,0.4-6.9c-3.8,0.9-6.9,2.1-9,3.5c1.1-10.1,7.2-18.6,15.9-23c-3.5,4.9-5.9,11.7-6.9,19.5c1.6-0.4,3.3-0.7,5.2-1
	c0.2-1.5,0.5-2.9,0.9-4.3c0.9-3.6,2.2-6.9,3.9-9.6c1.5-2.5,3.3-4.6,5.1-5.9c1.6-1.1,3.2-1.7,4.8-1.8c0.1,0,0.2,0,0.3,0s0.2,0,0.4,0
	c1.6,0.1,3.2,0.7,4.8,1.8c1.9,1.3,3.6,3.3,5.1,5.9c1.6,2.8,2.9,6,3.9,9.6c0.2,0.8,0.4,1.6,0.5,2.4c0.1,0.4-0.1,0.9-0.4,1.2
	c-0.3,0.3-0.8,0.5-1.2,0.4l0,0c-4-0.6-8.4-0.9-13-0.9c-5.4,0-10.5,0.4-15,1.1c-0.4,2.6-0.6,5.2-0.6,7.9c0,1.3,0.1,2.7,0.2,4
	c0.3,2.9,2.5,5.2,5.4,5.6c3.1,0.3,6.5,0.5,10,0.5c12.2,0,22.7-2.3,27.1-5.5c1.3-1,2.1-2.4,2.1-4c0-0.2,0-0.4,0-0.7
	c0-1.1-0.1-2.1-0.2-3.2c2.1,1.4,3.2,2.9,3.2,4.5C79.3,80.9,64.8,86.9,46.9,86.9z M142.1,49.7h-13.7v39.5h-7.8V49.7H107v-6.6h35.2
	L142.1,49.7L142.1,49.7z M145.5,50.6v-7.4h7.8v7.4H145.5z M145.7,55.8h7.4v33.4h-7.4V55.8z M207.2,66.9v22.3h-7.3V69.6
	c0-5.6-1.7-8.6-6.2-8.6c-4.1,0-6.8,3-6.8,11v17.2h-7.2V69.6c0-5-1.5-8.6-6.1-8.6c-5,0-7,4.5-7,11v17.2h-7.4V55.8h7.4v6.8h0.1
	c1-4.7,4.4-7.7,9.6-7.7c5.1,0,8.8,2.6,9.9,7.1c1-3.8,4.8-7.1,9.6-7.1C203.2,54.9,207.2,59.4,207.2,66.9z M244.4,74.5h-25.7
	c0.5,6.1,4.4,9.6,9.6,9.6c3.8,0,7-1.4,8.2-4.8h7.4c-2,6.8-7.7,10.8-15.6,10.8c-10,0-16.8-7.2-16.8-17.7c0-10.1,7.1-17.5,16.8-17.5
	c11.4,0,16,8.8,16.1,18.2V74.5z M236.9,69.1c-0.5-5.2-3.5-8.4-8.7-8.4s-8.6,3.3-9.4,8.4H236.9z M270.8,61.6v16.1
	c0,3.4,1,5.7,3.8,5.7h2v5.7H273c-7.3,0-9.7-4.7-9.7-10.6v-17h-5.2v-5.8h5.2v-7.5l7.2-3.6h0.3v11.1h6.5v5.8h-6.5V61.6z M279,72.5
	c0-10.5,7.3-17.6,17.2-17.6c9.9,0,17.2,7.2,17.2,17.6c0,10.5-7.3,17.6-17.2,17.6S279,83,279,72.5z M305.8,72.5
	c0-6.8-4.1-11.5-9.7-11.5c-5.5,0-9.7,4.7-9.7,11.5c0,6.7,4.1,11.5,9.7,11.5S305.8,79.2,305.8,72.5z M346.8,48.5
	c-4.5,0-8.5,1.9-8.5,6.6c0,4.1,4.3,5.9,10.3,7.5c7.8,2.1,16.2,4.1,16.2,13.9c0,9.4-9,13.7-17.4,13.7c-10.2,0-18.1-5.1-18.6-16.1h8
	c0.2,6.2,4.6,9.6,10.6,9.6c5.2,0,9.7-2.3,9.7-7.1c0-5-5.2-6-11-7.6c-7.6-2.1-15.4-4.8-15.6-13.8C330.4,46.4,338.6,42,347,42
	c9.4,0,16.1,4.6,16.6,14.7h-7.8C355.2,51.2,352.3,48.5,346.8,48.5z M379.4,61.6v16.1c0,3.4,1,5.7,3.8,5.7h2v5.7h-3.5
	c-7.3,0-9.7-4.7-9.7-10.6v-17h-5.2v-5.8h5.2v-7.5l7.2-3.6h0.3v11.1h6.5v5.8h-6.6L379.4,61.6L379.4,61.6z M418.7,89.2h-7.6
	c-0.3-1.4-0.3-2.9-0.3-4.5v-1h-0.1c-1.2,3-4.2,6.3-10.6,6.3c-7.5,0-11.7-4.6-11.7-9.9c0-9.7,11.4-9.9,16.1-10.7
	c4.4-0.7,6.2-1.4,6.2-4.1c0-2.8-2.4-4.6-6.5-4.6c-3.6,0-6.2,2-6.4,5.4h-7.3c0.3-5.5,4.6-11.2,13.6-11.2c11.1,0,13.9,6.6,13.9,13.8
	v12.8C418.1,84,418.2,87.4,418.7,89.2z M410.9,70.3c-0.8,2-2.6,3.5-8.1,4.5c-4.6,0.8-7,2.1-7,5.1c0,2.6,2.3,4.6,6.2,4.6
	c4.6,0,8.9-3.3,8.9-10.7V70.3z M427.6,55.8c3.1,8.8,6.1,16.8,9.2,25.6h0.1c2.5-8.1,5.4-16.7,8.3-25.6h7.9
	c-8.2,22.7-6.2,16.5-14.7,39.9c-1.5,4-4.1,6.3-8.6,6.3h-5.7v-5.9h3.6c2.7,0,3.5-1.2,4.4-3.5l1-2.6c-4.8-12.6-9.1-23.2-13.3-34.1h7.8
	L427.6,55.8L427.6,55.8z"/>
</svg>
